<?xml version="1.0" encoding="UTF-8"?><svg id="uuid-792e7fa0-bdf8-409f-8d0d-2264a339e050" xmlns="http://www.w3.org/2000/svg" viewBox="0 0 612 504"><defs><style>.uuid-e32a7579-4ad4-4b22-ba8a-0f3f69d4a3e7{fill:#b277ff;}.uuid-e32a7579-4ad4-4b22-ba8a-0f3f69d4a3e7,.uuid-0caeabbd-2a81-460d-8b02-5c2c90de45e8,.uuid-a04780b7-2e74-43a3-a565-6641de7126cc{stroke:#fff;stroke-miterlimit:10;stroke-width:7px;}.uuid-0caeabbd-2a81-460d-8b02-5c2c90de45e8{fill:#00bbf9;}.uuid-a04780b7-2e74-43a3-a565-6641de7126cc{fill:#f77;}</style></defs><circle class="uuid-a04780b7-2e74-43a3-a565-6641de7126cc" cx="306" cy="252" r="229.32"/><path class="uuid-0caeabbd-2a81-460d-8b02-5c2c90de45e8" d="M128.02,72.77c42.53,5.29,81.38,29.5,109.32,62,27.94,32.5,45.65,72.8,56.45,114.28-43.57-21.64-95.13-23.35-138.1-46.16-47.73-25.34-93.08-90.72-81.47-146.92,14.54,14.21,34.79,14.44,53.8,16.81Z"/><path class="uuid-0caeabbd-2a81-460d-8b02-5c2c90de45e8" d="M70.87,352.71c20.19-37.8,56.73-65.39,97.09-79.81,40.36-14.42,84.33-16.5,126.92-11.7-35.83,32.91-55.92,80.42-92.63,112.35-40.77,35.47-118.08,54.34-166.37,23.35,18.48-8.47,25.96-27.29,34.99-44.19Z"/><path class="uuid-e32a7579-4ad4-4b22-ba8a-0f3f69d4a3e7" d="M203.33,35.89c38.44,18.95,67.19,54.57,82.92,94.44,15.72,39.87,19.23,83.75,15.82,126.48-34.05-34.74-82.19-53.28-115.3-88.93-36.77-39.6-58.15-116.25-28.74-165.53,9.07,18.2,28.12,25.06,45.3,33.53Z"/><path class="uuid-e32a7579-4ad4-4b22-ba8a-0f3f69d4a3e7" d="M191.02,470.79c39.48-16.69,70.25-50.58,88.26-89.47,18.01-38.89,24.06-82.5,23.13-125.34-36.01,32.71-85.15,48.41-120.27,82.08-39.01,37.4-64.8,112.68-38.3,163.58,10.11-17.64,29.53-23.39,47.17-30.84Z"/><path class="uuid-0caeabbd-2a81-460d-8b02-5c2c90de45e8" d="M483.98,72.77c-42.53,5.29-81.38,29.5-109.32,62-27.94,32.5-45.65,72.8-56.45,114.28,43.57-21.64,95.13-23.35,138.1-46.16,47.73-25.34,93.08-90.72,81.47-146.92-14.54,14.21-34.79,14.44-53.8,16.81Z"/><path class="uuid-0caeabbd-2a81-460d-8b02-5c2c90de45e8" d="M541.13,352.71c-20.19-37.8-56.73-65.39-97.09-79.81-40.36-14.42-84.33-16.5-126.92-11.7,35.83,32.91,55.92,80.42,92.63,112.35,40.77,35.47,118.08,54.34,166.37,23.35-18.48-8.47-25.96-27.29-34.99-44.19Z"/><path class="uuid-e32a7579-4ad4-4b22-ba8a-0f3f69d4a3e7" d="M408.67,35.89c-38.44,18.95-67.19,54.57-82.92,94.44-15.72,39.87-19.23,83.75-15.82,126.48,34.05-34.74,82.19-53.28,115.3-88.93,36.77-39.6,58.15-116.25,28.74-165.53-9.07,18.2-28.12,25.06-45.3,33.53Z"/><path class="uuid-e32a7579-4ad4-4b22-ba8a-0f3f69d4a3e7" d="M420.98,470.79c-39.48-16.69-70.25-50.58-88.26-89.47-18.01-38.89-24.06-82.5-23.13-125.34,36.01,32.71,85.15,48.41,120.27,82.08,39.01,37.4,64.8,112.68,38.3,163.58-10.11-17.64-29.53-23.39-47.17-30.84Z"/></svg>