<?xml version="1.0" encoding="UTF-8"?><svg id="uuid-09f68c88-6f1b-49d3-bc52-f788b4d9bc25" xmlns="http://www.w3.org/2000/svg" viewBox="0 0 612 504"><defs><style>.uuid-8759b152-4654-4c4f-b046-0bccf6f113f9{fill:#66469c;}.uuid-8759b152-4654-4c4f-b046-0bccf6f113f9,.uuid-a673e3aa-07ea-469b-8c00-2c389de69da2,.uuid-e47f4dae-dc07-4e06-8223-608e6a3d5509{stroke:#fff;stroke-miterlimit:10;stroke-width:7px;}.uuid-a673e3aa-07ea-469b-8c00-2c389de69da2{fill:#0b277f;}.uuid-e47f4dae-dc07-4e06-8223-608e6a3d5509{fill:#00bbf9;}</style></defs><circle class="uuid-a673e3aa-07ea-469b-8c00-2c389de69da2" cx="306" cy="252" r="209.59"/><path class="uuid-e47f4dae-dc07-4e06-8223-608e6a3d5509" d="M143.34,88.2c38.87,4.83,74.38,26.96,99.91,56.66,25.53,29.7,41.72,66.54,51.59,104.44-39.82-19.78-86.94-21.34-126.21-42.19-43.62-23.16-85.07-82.92-74.46-134.28,13.29,12.99,31.8,13.2,49.17,15.36Z"/><path class="uuid-e47f4dae-dc07-4e06-8223-608e6a3d5509" d="M91.11,344.04c18.45-34.55,51.85-59.76,88.73-72.94,36.89-13.18,77.08-15.08,116-10.69-32.75,30.08-51.11,73.5-84.65,102.68-37.26,32.41-107.91,49.67-152.05,21.34,16.89-7.74,23.73-24.94,31.98-40.38Z"/><path class="uuid-8759b152-4654-4c4f-b046-0bccf6f113f9" d="M212.17,54.49c35.13,17.32,61.41,49.88,75.78,86.32,14.37,36.44,17.58,76.55,14.46,115.59-31.12-31.75-75.12-48.69-105.37-81.27-33.61-36.19-53.15-106.24-26.27-151.28,8.29,16.63,25.7,22.91,41.4,30.65Z"/><path class="uuid-8759b152-4654-4c4f-b046-0bccf6f113f9" d="M200.92,451.96c36.08-15.25,64.2-46.23,80.67-81.77,16.46-35.54,21.99-75.4,21.14-114.56-32.91,29.89-77.82,44.25-109.92,75.02-35.65,34.18-59.23,102.98-35.01,149.5,9.24-16.12,26.99-21.37,43.11-28.19Z"/><path class="uuid-e47f4dae-dc07-4e06-8223-608e6a3d5509" d="M468.66,88.2c-38.87,4.83-74.38,26.96-99.91,56.66-25.53,29.7-41.72,66.54-51.59,104.44,39.82-19.78,86.94-21.34,126.21-42.19,43.62-23.16,85.07-82.92,74.46-134.28-13.29,12.99-31.8,13.2-49.17,15.36Z"/><path class="uuid-e47f4dae-dc07-4e06-8223-608e6a3d5509" d="M520.89,344.04c-18.45-34.55-51.85-59.76-88.73-72.94-36.89-13.18-77.08-15.08-116-10.69,32.75,30.08,51.11,73.5,84.65,102.68,37.26,32.41,107.91,49.67,152.05,21.34-16.89-7.74-23.73-24.94-31.98-40.38Z"/><path class="uuid-8759b152-4654-4c4f-b046-0bccf6f113f9" d="M399.83,54.49c-35.13,17.32-61.41,49.88-75.78,86.32-14.37,36.44-17.58,76.55-14.46,115.59,31.12-31.75,75.12-48.69,105.37-81.27,33.61-36.19,53.15-106.24,26.27-151.28-8.29,16.63-25.7,22.91-41.4,30.65Z"/><path class="uuid-8759b152-4654-4c4f-b046-0bccf6f113f9" d="M411.08,451.96c-36.08-15.25-64.2-46.23-80.67-81.77-16.46-35.54-21.99-75.4-21.14-114.56,32.91,29.89,77.82,44.25,109.92,75.02,35.65,34.18,59.23,102.98,35.01,149.5-9.24-16.12-26.99-21.37-43.11-28.19Z"/></svg>